<?xml version="1.0" standalone="no"?>
<!DOCTYPE svg PUBLIC "-//W3C//DTD SVG 20010904//EN"
 "http://www.w3.org/TR/2001/REC-SVG-20010904/DTD/svg10.dtd">
<svg version="1.0" xmlns="http://www.w3.org/2000/svg"
 width="700.000000pt" height="700.000000pt" viewBox="0 0 700.000000 700.000000"
 preserveAspectRatio="xMidYMid meet">
<metadata>
Created by potrace 1.14, written by Peter Selinger 2001-2017
</metadata>
<g transform="translate(0.000000,700.000000) scale(0.100000,-0.100000)"
fill="#000000" stroke="none">
<path d="M640 6981 c-88 -28 -140 -60 -200 -120 -69 -68 -115 -161 -127 -251
-10 -73 -9 -1088 1 -1136 34 -172 159 -306 335 -358 49 -14 271 -16 2330 -16
2460 0 2321 -3 2436 51 59 28 135 96 174 157 57 89 72 152 75 302 l2 135 210
0 209 0 1 -525 c1 -289 -2 -527 -6 -530 -5 -3 -683 -4 -1507 -3 -1056 2 -1513
-1 -1548 -8 -163 -36 -301 -176 -341 -348 -4 -14 -7 -150 -9 -300 -1 -225 -4
-276 -16 -282 -8 -4 -39 -15 -69 -24 -148 -45 -267 -175 -303 -331 -11 -48
-13 -330 -12 -1569 1 -831 5 -1523 9 -1539 33 -139 148 -246 294 -275 31 -7
195 -11 400 -11 367 0 426 6 512 50 84 43 153 136 178 242 9 34 11 454 9 1575
l-2 1528 -22 55 c-59 142 -176 248 -314 283 l-54 14 -3 167 -2 166 52 0 c53 0
1617 0 2518 -1 446 0 478 1 531 19 140 49 227 137 290 292 22 55 22 56 23 785
1 402 -2 757 -7 790 -5 33 -24 92 -43 131 -59 125 -201 232 -330 250 -27 4
-183 7 -346 7 -164 0 -298 3 -299 6 -1 3 -2 56 -3 116 -3 142 -11 186 -49 265
-58 125 -187 224 -322 249 -42 8 -720 11 -2330 10 -2145 0 -2273 -1 -2325 -18z"/>
</g>
</svg>
